<svg version="1.1" xmlns="http://www.w3.org/2000/svg" viewBox="0 0 228.86419677734375 336.02806091308594" width="228.86419677734375" height="336.02806091308594">
  <!-- svg-source:excalidraw -->
  
  <defs>
    <style class="style-fonts">
      @font-face {
        font-family: "Virgil";
        src: url("https://excalidraw.com/Virgil.woff2");
      }
      @font-face {
        font-family: "Cascadia";
        src: url("https://excalidraw.com/Cascadia.woff2");
      }
    </style>
  </defs>
  <g stroke-linecap="round" transform="translate(10.096405029296875 0) rotate(0 104.335693359375 82.78211975097655)"><path d="M32 0 L176.67 0 L184.17 0.5 L190.67 2 L196.17 4.5 L200.67 8 L204.17 12.5 L206.67 18 L208.17 24.5 L208.67 32 L208.67 133.56 L208.17 141.06 L206.67 147.56 L204.17 153.06 L200.67 157.56 L196.17 161.06 L190.67 163.56 L184.17 165.06 L176.67 165.56 L32 165.56 L24.5 165.06 L18 163.56 L12.5 161.06 L8 157.56 L4.5 153.06 L2 147.56 L0.5 141.06 L0 133.56 L0.5 24.5 L2 18 L4.5 12.5 L8 8 L12.5 4.5 L18 2 L24.5 0.5 L32 0" stroke="none" stroke-width="0" fill="#1a943d"/><path d="M32 0 M32 0 C63.34 0, 94.67 0, 176.67 0 M32 0 C79.23 0, 126.46 0, 176.67 0 M176.67 0 C198 0, 208.67 10.67, 208.67 32 M176.67 0 C198 0, 208.67 10.67, 208.67 32 M208.67 32 C208.67 58.07, 208.67 84.15, 208.67 133.56 M208.67 32 C208.67 56.48, 208.67 80.97, 208.67 133.56 M208.67 133.56 C208.67 154.9, 198 165.56, 176.67 165.56 M208.67 133.56 C208.67 154.9, 198 165.56, 176.67 165.56 M176.67 165.56 C131.63 165.56, 86.6 165.56, 32 165.56 M176.67 165.56 C143.49 165.56, 110.31 165.56, 32 165.56 M32 165.56 C10.67 165.56, 0 154.9, 0 133.56 M32 165.56 C10.67 165.56, 0 154.9, 0 133.56 M0 133.56 C0 95.58, 0 57.59, 0 32 M0 133.56 C0 100.64, 0 67.71, 0 32 M0 32 C0 10.67, 10.67 0, 32 0 M0 32 C0 10.67, 10.67 0, 32 0" stroke="#1a943d" stroke-width="1" fill="none"/></g><g stroke-linecap="round" transform="translate(39.917144775390625 31.8916015625) rotate(0 74.51495361328125 19.003448486328125)"><path d="M9.5 0 L139.53 0 L143.69 0.59 L146.65 2.38 L148.44 5.34 L149.03 9.5 L148.44 32.66 L146.65 35.63 L143.69 37.41 L139.53 38.01 L9.5 38.01 L5.34 37.41 L2.38 35.63 L0.59 32.66 L0 9.5 L0.59 5.34 L2.38 2.38 L5.34 0.59 L9.5 0" stroke="none" stroke-width="0" fill="#fff"/><path d="M9.5 0 M9.5 0 C39.52 0, 69.54 0, 139.53 0 M9.5 0 C35.89 0, 62.27 0, 139.53 0 M139.53 0 C145.86 0, 149.03 3.17, 149.03 9.5 M139.53 0 C145.86 0, 149.03 3.17, 149.03 9.5 M149.03 9.5 C149.03 13.32, 149.03 17.14, 149.03 28.51 M149.03 9.5 C149.03 16.52, 149.03 23.55, 149.03 28.51 M149.03 28.51 C149.03 34.84, 145.86 38.01, 139.53 38.01 M149.03 28.51 C149.03 34.84, 145.86 38.01, 139.53 38.01 M139.53 38.01 C92.03 38.01, 44.52 38.01, 9.5 38.01 M139.53 38.01 C93.35 38.01, 47.17 38.01, 9.5 38.01 M9.5 38.01 C3.17 38.01, 0 34.84, 0 28.51 M9.5 38.01 C3.17 38.01, 0 34.84, 0 28.51 M0 28.51 C0 23.42, 0 18.34, 0 9.5 M0 28.51 C0 23.89, 0 19.28, 0 9.5 M0 9.5 C0 3.17, 3.17 0, 9.5 0 M0 9.5 C0 3.17, 3.17 0, 9.5 0" stroke="#1a943d" stroke-width="1" fill="none"/></g><g stroke-linecap="round" transform="translate(39.917144775390625 95.66574096679686) rotate(0 74.51495361328125 19.00344848632812)"><path d="M9.5 0 L139.53 0 L143.69 0.59 L146.65 2.38 L148.44 5.34 L149.03 9.5 L148.44 32.66 L146.65 35.63 L143.69 37.41 L139.53 38.01 L9.5 38.01 L5.34 37.41 L2.38 35.63 L0.59 32.66 L0 9.5 L0.59 5.34 L2.38 2.38 L5.34 0.59 L9.5 0" stroke="none" stroke-width="0" fill="#fff"/><path d="M9.5 0 M9.5 0 C37.79 0, 66.08 0, 139.53 0 M9.5 0 C48.99 0, 88.47 0, 139.53 0 M139.53 0 C145.86 0, 149.03 3.17, 149.03 9.5 M139.53 0 C145.86 0, 149.03 3.17, 149.03 9.5 M149.03 9.5 C149.03 15.18, 149.03 20.85, 149.03 28.51 M149.03 9.5 C149.03 14.11, 149.03 18.72, 149.03 28.51 M149.03 28.51 C149.03 34.84, 145.86 38.01, 139.53 38.01 M149.03 28.51 C149.03 34.84, 145.86 38.01, 139.53 38.01 M139.53 38.01 C91.76 38.01, 43.99 38.01, 9.5 38.01 M139.53 38.01 C102.28 38.01, 65.03 38.01, 9.5 38.01 M9.5 38.01 C3.17 38.01, 0 34.84, 0 28.51 M9.5 38.01 C3.17 38.01, 0 34.84, 0 28.51 M0 28.51 C0 21.46, 0 14.42, 0 9.5 M0 28.51 C0 23.46, 0 18.41, 0 9.5 M0 9.5 C0 3.17, 3.17 0, 9.5 0 M0 9.5 C0 3.17, 3.17 0, 9.5 0" stroke="#1a943d" stroke-width="1" fill="none"/></g><g stroke-linecap="round" transform="translate(0 209.1439053908873) rotate(0 114.43209838867188 17.68774805827836)"><path d="M8.84 0 L220.02 0 L223.89 0.55 L226.65 2.21 L228.31 4.97 L228.86 26.53 L228.31 30.4 L226.65 33.16 L223.89 34.82 L220.02 35.38 L8.84 35.38 L4.97 34.82 L2.21 33.16 L0.55 30.4 L0 26.53 L0.55 4.97 L2.21 2.21 L4.97 0.55 L8.84 0" stroke="none" stroke-width="0" fill="#e77b18"/><path d="M8.84 0 M8.84 0 C66.43 0, 124.01 0, 220.02 0 M8.84 0 C75.72 0, 142.6 0, 220.02 0 M220.02 0 C225.92 0, 228.86 2.95, 228.86 8.84 M220.02 0 C225.92 0, 228.86 2.95, 228.86 8.84 M228.86 8.84 C228.86 14.73, 228.86 20.61, 228.86 26.53 M228.86 8.84 C228.86 15.9, 228.86 22.95, 228.86 26.53 M228.86 26.53 C228.86 32.43, 225.92 35.38, 220.02 35.38 M228.86 26.53 C228.86 32.43, 225.92 35.38, 220.02 35.38 M220.02 35.38 C139.14 35.38, 58.26 35.38, 8.84 35.38 M220.02 35.38 C153.9 35.38, 87.77 35.38, 8.84 35.38 M8.84 35.38 C2.95 35.38, 0 32.43, 0 26.53 M8.84 35.38 C2.95 35.38, 0 32.43, 0 26.53 M0 26.53 C0 21.69, 0 16.85, 0 8.84 M0 26.53 C0 20.59, 0 14.64, 0 8.84 M0 8.84 C0 2.95, 2.95 0, 8.84 0 M0 8.84 C0 2.95, 2.95 0, 8.84 0" stroke="#e77b18" stroke-width="1" fill="none"/></g><g stroke-linecap="round" transform="translate(95.22217020151804 173.09307069227665) rotate(0 19.20992818715384 81.46749511040464)"><path d="M9.6 0 L33.02 0.6 L36.02 2.4 L37.82 5.4 L38.42 9.6 L38.42 153.33 L37.82 157.53 L36.02 160.53 L33.02 162.33 L28.81 162.93 L5.4 162.33 L2.4 160.53 L0.6 157.53 L0 153.33 L0 9.6 L0.6 5.4 L2.4 2.4 L5.4 0.6 L9.6 0" stroke="none" stroke-width="0" fill="#e77b18"/><path d="M9.6 0 M9.6 0 C14.64 0, 19.68 0, 28.81 0 M9.6 0 C15.23 0, 20.86 0, 28.81 0 M28.81 0 C35.22 0, 38.42 3.2, 38.42 9.6 M28.81 0 C35.22 0, 38.42 3.2, 38.42 9.6 M38.42 9.6 C38.42 66.68, 38.42 123.76, 38.42 153.33 M38.42 9.6 C38.42 40.03, 38.42 70.45, 38.42 153.33 M38.42 153.33 C38.42 159.73, 35.22 162.93, 28.81 162.93 M38.42 153.33 C38.42 159.73, 35.22 162.93, 28.81 162.93 M28.81 162.93 C24.31 162.93, 19.8 162.93, 9.6 162.93 M28.81 162.93 C24.4 162.93, 19.98 162.93, 9.6 162.93 M9.6 162.93 C3.2 162.93, 0 159.73, 0 153.33 M9.6 162.93 C3.2 162.93, 0 159.73, 0 153.33 M0 153.33 C0 120.61, 0 87.89, 0 9.6 M0 153.33 C0 99.99, 0 46.65, 0 9.6 M0 9.6 C0 3.2, 3.2 0, 9.6 0 M0 9.6 C0 3.2, 3.2 0, 9.6 0" stroke="#e77b18" stroke-width="1" fill="none"/></g></svg>